# xmcd CD database file
#
# Track frame offsets:
#	150
#	29407
#	41464
#	54754
#	74501
#	114165
#	133996
#	160585
#	180528
#	191465
#
# Disc length: 2892 seconds
#
# Revision: 0
# Processed by: cddbd v1.5.2PL0 Copyright (c) Steve Scherf et al.
# Submitted via: CDex 1.70beta2
#
DISCID=7e0b4a0a
DTITLE=Van Morrison - Veedon Fleece
DYEAR=1974
DGENRE=Jazz
TTITLE0=Streets Of Arklow
TTITLE1=Country Fair
TTITLE2=Cul De Sac
TTITLE3=Linden Arden Stole The Highlights
TTITLE4=Fair Play
TTITLE5=Bulbs
TTITLE6=You Don´t Pull No Punches But You Don´t Push The River
TTITLE7=Comfort You
TTITLE8=Come Here My Love
TTITLE9=Who Was That Masked Man
EXTD=YEAR: 1974
EXTT0=
EXTT1=
EXTT2=
EXTT3=
EXTT4=
EXTT5=
EXTT6=
EXTT7=
EXTT8=
EXTT9=
PLAYORDER=
